<?xml version="1.0" encoding="UTF-8" standalone="no"?>
<svg
   viewBox="0 0 2000 1500"
   version="1.1"
   id="svg99"
   sodipodi:docname="663d2bcec1abbccd81a7d574e5e630d1.svg"
   width="2000"
   height="1500"
   xmlns:inkscape="http://www.inkscape.org/namespaces/inkscape"
   xmlns:sodipodi="http://sodipodi.sourceforge.net/DTD/sodipodi-0.dtd"
   xmlns="http://www.w3.org/2000/svg"
   xmlns:svg="http://www.w3.org/2000/svg">
  <sodipodi:namedview
     id="namedview101"
     pagecolor="#ffffff"
     bordercolor="#666666"
     borderopacity="1.0"
     inkscape:pageshadow="2"
     inkscape:pageopacity="0.0"
     inkscape:pagecheckerboard="0" />
  <rect
     fill="#0c111c"
     width="2000"
     height="1500"
     id="rect2"
     x="0"
     y="0" />
  <defs
     id="defs13">
    <circle
       stroke="#233252"
       vector-effect="non-scaling-stroke"
       id="a"
       fill="none"
       stroke-width="1"
       r="315"
       cx="0"
       cy="0" />
    <use
       id="f"
       href="#a"
       stroke-dasharray="100, 100, 100, 9999"
       x="0"
       y="0"
       width="100%"
       height="100%" />
    <use
       id="b"
       href="#a"
       stroke-dasharray="250, 250, 250, 250, 250, 9999"
       x="0"
       y="0"
       width="100%"
       height="100%" />
    <use
       id="e"
       href="#a"
       stroke-dasharray="1000, 500, 1000, 500, 9999"
       x="0"
       y="0"
       width="100%"
       height="100%" />
    <use
       id="g"
       href="#a"
       stroke-dasharray="1500, 9999"
       x="0"
       y="0"
       width="100%"
       height="100%" />
    <use
       id="h"
       href="#a"
       stroke-dasharray="2000, 500, 500, 9999"
       x="0"
       y="0"
       width="100%"
       height="100%" />
    <use
       id="j"
       href="#a"
       stroke-dasharray="800, 800, 800, 800, 800, 9999"
       x="0"
       y="0"
       width="100%"
       height="100%" />
    <use
       id="k"
       href="#a"
       stroke-dasharray="1200, 1200, 1200, 1200, 1200, 9999"
       x="0"
       y="0"
       width="100%"
       height="100%" />
    <use
       id="l"
       href="#a"
       stroke-dasharray="1600, 1600, 1600, 1600, 1600, 9999"
       x="0"
       y="0"
       width="100%"
       height="100%" />
  </defs>
  <g
     transform="translate(1000,750)"
     stroke-opacity="0.83"
     id="g97">
    <g
       id="g95">
      <circle
         fill="#233252"
         fill-opacity="0.83"
         r="10"
         id="circle15"
         cx="0"
         cy="0" />
      <g
         id="g23">
        <use
           href="#f"
           transform="matrix(0.06427876,0.07660444,-0.07660444,0.06427876,0,0)"
           id="use17"
           x="0"
           y="0"
           width="100%"
           height="100%" />
        <use
           href="#f"
           transform="matrix(-0.03472964,0.19696155,-0.19696155,-0.03472964,0,0)"
           id="use19"
           x="0"
           y="0"
           width="100%"
           height="100%" />
        <use
           href="#f"
           transform="matrix(-0.25980762,0.15,-0.15,-0.25980762,0,0)"
           id="use21"
           x="0"
           y="0"
           width="100%"
           height="100%" />
      </g>
      <g
         id="g29">
        <use
           href="#b"
           transform="matrix(-0.37587705,-0.13680806,0.13680806,-0.37587705,0,0)"
           id="use25"
           x="0"
           y="0"
           width="100%"
           height="100%" />
        <use
           href="#z"
           transform="matrix(-0.17101007,-0.46984631,0.46984631,-0.17101007,0,0)"
           id="use27"
           x="0"
           y="0"
           width="100%"
           height="100%" />
      </g>
      <g
         id="z">
        <g
           id="g41">
          <use
             href="#b"
             id="use31"
             x="0"
             y="0"
             width="100%"
             height="100%" />
          <use
             href="#b"
             transform="matrix(0,1.2,-1.2,0,0,0)"
             id="use33"
             x="0"
             y="0"
             width="100%"
             height="100%" />
          <use
             href="#b"
             transform="matrix(0.7,1.2124356,-1.2124356,0.7,0,0)"
             id="use35"
             x="0"
             y="0"
             width="100%"
             height="100%" />
          <use
             href="#e"
             transform="matrix(-0.8,1.3856406,-1.3856406,-0.8,0,0)"
             id="use37"
             x="0"
             y="0"
             width="100%"
             height="100%" />
          <use
             href="#e"
             transform="matrix(1.5588457,0.9,-0.9,1.5588457,0,0)"
             id="use39"
             x="0"
             y="0"
             width="100%"
             height="100%" />
        </g>
      </g>
      <g
         id="y">
        <g
           id="g54">
          <use
             href="#e"
             transform="matrix(1.0336619,0.37622216,-0.37622216,1.0336619,0,0)"
             id="use44"
             x="0"
             y="0"
             width="100%"
             height="100%" />
          <use
             href="#g"
             transform="matrix(0.99585778,-0.83562389,0.83562389,0.99585778,0,0)"
             id="use46"
             x="0"
             y="0"
             width="100%"
             height="100%" />
          <use
             href="#g"
             transform="matrix(0.75,1.2990381,-1.2990381,0.75,0,0)"
             id="use48"
             x="0"
             y="0"
             width="100%"
             height="100%" />
          <use
             href="#h"
             transform="matrix(0.2952019,-1.6741732,1.6741732,0.2952019,0,0)"
             id="use50"
             x="0"
             y="0"
             width="100%"
             height="100%" />
          <use
             href="#j"
             transform="matrix(-0.32993154,1.8711347,-1.8711347,-0.32993154,0,0)"
             id="use52"
             x="0"
             y="0"
             width="100%"
             height="100%" />
        </g>
      </g>
      <g
         id="g93">
        <g
           id="g81">
          <g
             id="g67">
            <use
               href="#h"
               transform="matrix(1,1.7320508,-1.7320508,1,0,0)"
               id="use57"
               x="0"
               y="0"
               width="100%"
               height="100%" />
            <use
               href="#j"
               transform="matrix(-1.05,1.8186533,-1.8186533,-1.05,0,0)"
               id="use59"
               x="0"
               y="0"
               width="100%"
               height="100%" />
            <use
               href="#j"
               transform="scale(-2.3)"
               id="use61"
               x="0"
               y="0"
               width="100%"
               height="100%" />
            <use
               href="#h"
               transform="matrix(-1.2,-2.078461,2.078461,-1.2,0,0)"
               id="use63"
               x="0"
               y="0"
               width="100%"
               height="100%" />
            <use
               href="#j"
               transform="matrix(1.25,-2.1650635,2.1650635,1.25,0,0)"
               id="use65"
               x="0"
               y="0"
               width="100%"
               height="100%" />
          </g>
          <use
             href="#y"
             transform="scale(-2)"
             id="use69"
             x="0"
             y="0"
             width="100%"
             height="100%" />
          <use
             href="#j"
             transform="scale(2.7)"
             id="use71"
             x="0"
             y="0"
             width="100%"
             height="100%" />
          <use
             href="#j"
             transform="matrix(1.979899,1.979899,-1.979899,1.979899,0,0)"
             id="use73"
             x="0"
             y="0"
             width="100%"
             height="100%" />
          <use
             href="#j"
             transform="matrix(0,2.9,-2.9,0,0,0)"
             id="use75"
             x="0"
             y="0"
             width="100%"
             height="100%" />
          <use
             href="#k"
             transform="matrix(-2.192031,2.192031,-2.192031,-2.192031,0,0)"
             id="use77"
             x="0"
             y="0"
             width="100%"
             height="100%" />
          <use
             href="#k"
             transform="scale(-3.2)"
             id="use79"
             x="0"
             y="0"
             width="100%"
             height="100%" />
        </g>
        <use
           href="#k"
           transform="matrix(-2.3334524,-2.3334524,2.3334524,-2.3334524,0,0)"
           id="use83"
           x="0"
           y="0"
           width="100%"
           height="100%" />
        <use
           href="#k"
           transform="matrix(0,-3.5,3.5,0,0,0)"
           id="use85"
           x="0"
           y="0"
           width="100%"
           height="100%" />
        <use
           href="#k"
           transform="matrix(2.5455844,-2.5455844,2.5455844,2.5455844,0,0)"
           id="use87"
           x="0"
           y="0"
           width="100%"
           height="100%" />
        <use
           href="#k"
           transform="scale(3.7)"
           id="use89"
           x="0"
           y="0"
           width="100%"
           height="100%" />
        <use
           href="#k"
           transform="matrix(1.0093943,3.7671107,-3.7671107,1.0093943,0,0)"
           id="use91"
           x="0"
           y="0"
           width="100%"
           height="100%" />
      </g>
    </g>
  </g>
</svg>
